<svg xmlns="http://www.w3.org/2000/svg" xmlns:xlink="http://www.w3.org/1999/xlink" width="331pt" height="332pt" viewBox="0.00 0.00 330.78 332.00">
<g id="graph0" class="graph" transform="scale(1 1) rotate(0) translate(4 328)">
<polygon fill="white" stroke="none" points="-4,4 -4,-328 326.78,-328 326.78,4 -4,4"/>
<!-- Age -->
<g id="node1" class="node">
<title>Age</title>
<ellipse fill="none" stroke="black" cx="101.32" cy="-306" rx="27.13" ry="18"/>
<text text-anchor="middle" x="101.32" y="-301.8" font-family="Times,serif" font-size="14.00">Age</text>
</g>
<!-- Duration -->
<g id="node5" class="node">
<title>Duration</title>
<ellipse fill="none" stroke="black" cx="173.32" cy="-234" rx="45.36" ry="18"/>
<text text-anchor="middle" x="173.32" y="-229.8" font-family="Times,serif" font-size="14.00">Duration</text>
</g>
<!-- Age&#45;&gt;Duration -->
<g id="edge1" class="edge">
<title>Age-&gt;Duration</title>
<path fill="none" stroke="black" d="M116.24,-290.5C125.54,-281.46 137.73,-269.61 148.45,-259.18"/>
<polygon fill="black" stroke="black" points="150.85,-261.73 155.58,-252.25 145.97,-256.71 150.85,-261.73"/>
</g>
<!-- Heart_Rate -->
<g id="node6" class="node">
<title>Heart_Rate</title>
<ellipse fill="none" stroke="black" cx="145.32" cy="-162" rx="55.01" ry="18"/>
<text text-anchor="middle" x="145.32" y="-157.8" font-family="Times,serif" font-size="14.00">Heart_Rate</text>
</g>
<!-- Age&#45;&gt;Heart_Rate -->
<g id="edge2" class="edge">
<title>Age-&gt;Heart_Rate</title>
<path fill="none" stroke="black" d="M103.49,-287.59C106.08,-269.4 111.1,-240.18 119.32,-216 122.26,-207.36 126.3,-198.33 130.31,-190.21"/>
<polygon fill="black" stroke="black" points="133.32,-192.02 134.8,-181.53 127.1,-188.81 133.32,-192.02"/>
</g>
<!-- Body_Temp -->
<g id="node7" class="node">
<title>Body_Temp</title>
<ellipse fill="none" stroke="black" cx="60.32" cy="-90" rx="59.32" ry="18"/>
<text text-anchor="middle" x="60.32" y="-85.8" font-family="Times,serif" font-size="14.00">Body_Temp</text>
</g>
<!-- Age&#45;&gt;Body_Temp -->
<g id="edge3" class="edge">
<title>Age-&gt;Body_Temp</title>
<path fill="none" stroke="black" d="M94.25,-288.41C84.61,-264.83 67.8,-220.04 61.32,-180 58.09,-160.02 57.9,-137.18 58.49,-119.65"/>
<polygon fill="black" stroke="black" points="61.99,-119.85 58.94,-109.7 54.99,-119.53 61.99,-119.85"/>
</g>
<!-- Sex -->
<g id="node2" class="node">
<title>Sex</title>
<ellipse fill="none" stroke="black" cx="29.32" cy="-306" rx="27" ry="18"/>
<text text-anchor="middle" x="29.32" y="-301.8" font-family="Times,serif" font-size="14.00">Sex</text>
</g>
<!-- Sex&#45;&gt;Duration -->
<g id="edge4" class="edge">
<title>Sex-&gt;Duration</title>
<path fill="none" stroke="black" d="M50.88,-294.52C73.11,-283.71 108.25,-266.63 135.19,-253.54"/>
<polygon fill="black" stroke="black" points="136.61,-256.74 144.07,-249.22 133.55,-250.44 136.61,-256.74"/>
</g>
<!-- Sex&#45;&gt;Heart_Rate -->
<g id="edge5" class="edge">
<title>Sex-&gt;Heart_Rate</title>
<path fill="none" stroke="black" d="M41.74,-289.8C61.46,-265.66 100.19,-218.25 124.3,-188.74"/>
<polygon fill="black" stroke="black" points="126.99,-190.97 130.61,-181.01 121.57,-186.54 126.99,-190.97"/>
</g>
<!-- Sex&#45;&gt;Body_Temp -->
<g id="edge6" class="edge">
<title>Sex-&gt;Body_Temp</title>
<path fill="none" stroke="black" d="M21.82,-288.69C17.51,-278.41 12.53,-264.71 10.32,-252 2.1,-204.71 -7.4,-188.61 10.32,-144 14.67,-133.07 22.45,-123.08 30.61,-114.8"/>
<polygon fill="black" stroke="black" points="32.79,-117.56 37.67,-108.15 27.99,-112.46 32.79,-117.56"/>
</g>
<!-- Height -->
<g id="node3" class="node">
<title>Height</title>
<ellipse fill="none" stroke="black" cx="186.32" cy="-306" rx="37.32" ry="18"/>
<text text-anchor="middle" x="186.32" y="-301.8" font-family="Times,serif" font-size="14.00">Height</text>
</g>
<!-- Height&#45;&gt;Duration -->
<g id="edge7" class="edge">
<title>Height-&gt;Duration</title>
<path fill="none" stroke="black" d="M183.11,-287.7C181.74,-280.32 180.11,-271.52 178.57,-263.25"/>
<polygon fill="black" stroke="black" points="182.04,-262.79 176.77,-253.59 175.16,-264.06 182.04,-262.79"/>
</g>
<!-- Height&#45;&gt;Heart_Rate -->
<g id="edge8" class="edge">
<title>Height-&gt;Heart_Rate</title>
<path fill="none" stroke="black" d="M202.37,-289.58C219.06,-271.59 240.99,-241.1 227.32,-216 219.22,-201.12 204.95,-189.78 190.56,-181.49"/>
<polygon fill="black" stroke="black" points="192.46,-178.53 181.99,-176.93 189.18,-184.72 192.46,-178.53"/>
</g>
<!-- Weight -->
<g id="node4" class="node">
<title>Weight</title>
<ellipse fill="none" stroke="black" cx="283.32" cy="-306" rx="39.46" ry="18"/>
<text text-anchor="middle" x="283.32" y="-301.8" font-family="Times,serif" font-size="14.00">Weight</text>
</g>
<!-- Weight&#45;&gt;Duration -->
<g id="edge9" class="edge">
<title>Weight-&gt;Duration</title>
<path fill="none" stroke="black" d="M261.06,-290.83C245.28,-280.79 223.84,-267.15 206.1,-255.86"/>
<polygon fill="black" stroke="black" points="208.28,-253.1 197.96,-250.68 204.52,-259 208.28,-253.1"/>
</g>
<!-- Weight&#45;&gt;Heart_Rate -->
<g id="edge10" class="edge">
<title>Weight-&gt;Heart_Rate</title>
<path fill="none" stroke="black" d="M279.16,-287.72C273.73,-268.28 262.58,-236.72 243.32,-216 229.23,-200.84 209.8,-189.09 191.95,-180.55"/>
<polygon fill="black" stroke="black" points="193.61,-177.46 183.06,-176.52 190.72,-183.84 193.61,-177.46"/>
</g>
<!-- Duration&#45;&gt;Heart_Rate -->
<g id="edge11" class="edge">
<title>Duration-&gt;Heart_Rate</title>
<path fill="none" stroke="black" d="M166.54,-216.05C163.53,-208.52 159.9,-199.44 156.5,-190.94"/>
<polygon fill="black" stroke="black" points="159.76,-189.67 152.79,-181.68 153.26,-192.27 159.76,-189.67"/>
</g>
<!-- Duration&#45;&gt;Body_Temp -->
<g id="edge12" class="edge">
<title>Duration-&gt;Body_Temp</title>
<path fill="none" stroke="black" d="M139.7,-221.48C119.86,-213 95.85,-199.52 81.32,-180 68.41,-162.66 63.3,-138.58 61.33,-119.85"/>
<polygon fill="black" stroke="black" points="64.83,-119.64 60.57,-109.94 57.85,-120.18 64.83,-119.64"/>
</g>
<!-- Calories -->
<g id="node8" class="node">
<title>Calories</title>
<ellipse fill="none" stroke="black" cx="147.32" cy="-18" rx="43.22" ry="18"/>
<text text-anchor="middle" x="147.32" y="-13.8" font-family="Times,serif" font-size="14.00">Calories</text>
</g>
<!-- Duration&#45;&gt;Calories -->
<g id="edge13" class="edge">
<title>Duration-&gt;Calories</title>
<path fill="none" stroke="black" d="M188.18,-216.71C196.14,-206.86 205.14,-193.61 209.32,-180 214.02,-164.71 212.97,-159.58 209.32,-144 200.81,-107.68 180.1,-69.82 164.95,-45.42"/>
<polygon fill="black" stroke="black" points="167.98,-43.67 159.66,-37.11 162.08,-47.42 167.98,-43.67"/>
</g>
<!-- Heart_Rate&#45;&gt;Body_Temp -->
<g id="edge14" class="edge">
<title>Heart_Rate-&gt;Body_Temp</title>
<path fill="none" stroke="black" d="M125.61,-144.76C114.74,-135.82 101.06,-124.55 89.03,-114.64"/>
<polygon fill="black" stroke="black" points="91.34,-112.01 81.39,-108.35 86.89,-117.41 91.34,-112.01"/>
</g>
<!-- Heart_Rate&#45;&gt;Calories -->
<g id="edge15" class="edge">
<title>Heart_Rate-&gt;Calories</title>
<path fill="none" stroke="black" d="M145.57,-143.59C145.9,-119.61 146.52,-76.14 146.92,-47.42"/>
<polygon fill="black" stroke="black" points="150.42,-47.67 147.06,-37.62 143.42,-47.57 150.42,-47.67"/>
</g>
<!-- Body_Temp&#45;&gt;Calories -->
<g id="edge16" class="edge">
<title>Body_Temp-&gt;Calories</title>
<path fill="none" stroke="black" d="M80.5,-72.76C92.05,-63.47 106.72,-51.67 119.37,-41.49"/>
<polygon fill="black" stroke="black" points="121.37,-44.37 126.97,-35.38 116.98,-38.92 121.37,-44.37"/>
</g>
</g>
</svg>